External Loads File
version=1
nRows=93
nColumns=13
Range=5.000000e-03-10 seconds
endheader
time 	forceRightX 	forceRightY 	forceRightZ 	pointRightX 	pointRightY 	pointRightZ 	forceLeftX 	forceLeftY 	forceLeftZ 	pointLeftX 	pointLeftY 	pointLeftZ 		
5.005000 19.305064 -28.567842 -0.000000 0.177892 0.291514 -0.190803 -212.747880 497.341737 -0.000000 0.463667 0.359840 -0.444685
5.010000 18.632356 -23.659350 -0.000000 0.176625 0.301926 -0.190904 -218.250014 509.582780 -0.000000 0.466249 0.348980 -0.444660
5.015000 18.613023 -18.728402 -0.000000 0.175840 0.312501 -0.191145 -222.227591 521.255282 -0.000000 0.468194 0.338043 -0.444632
5.020000 19.139025 -14.084030 -0.000000 0.175715 0.323247 -0.191277 -224.097075 533.054318 -0.000000 0.469738 0.327003 -0.444271
5.025000 20.066685 -9.999971 -0.000000 0.176129 0.334153 -0.191442 -223.672537 545.207729 -0.000000 0.470426 0.316063 -0.444771
5.030000 21.181833 -6.700931 -0.000000 0.176493 0.345012 -0.192618 -220.643983 557.686650 -0.000000 0.470344 0.305110 -0.444829
5.035000 22.203305 -4.377002 -0.000000 0.178780 0.356098 -0.192059 -213.691270 570.610524 -0.000000 0.469593 0.294193 -0.444845
5.040000 22.865389 -3.048869 -0.000000 0.180426 0.367059 -0.193189 -204.166947 582.930458 -0.000000 0.468168 0.283420 -0.444952
5.045000 22.927484 -2.784173 -0.000000 0.183834 0.377874 -0.192234 -190.784702 594.516209 -0.000000 0.466138 0.272657 -0.445120
5.050000 22.228404 -3.525380 -0.000000 0.187184 0.388855 -0.192490 -174.400054 604.441297 -0.000000 0.463389 0.262171 -0.445201
5.055000 20.655305 -5.195975 -0.000000 0.191142 0.399427 -0.192711 -155.871107 611.927010 -0.000000 0.460005 0.251920 -0.445359
5.060000 18.130464 -7.739985 -0.000000 0.195648 0.409836 -0.192984 -135.324804 616.592174 -0.000000 0.456025 0.241974 -0.445435
5.065000 14.630162 -11.075107 -0.000000 0.200774 0.419887 -0.192960 -113.662033 618.124999 -0.000000 0.451415 0.232447 -0.445469
5.070000 10.189313 -15.133944 -0.000000 0.206358 0.429697 -0.193412 -91.434713 616.603426 -0.000000 0.446238 0.223311 -0.445398
5.075000 4.906175 -19.840301 -0.000000 0.212563 0.439063 -0.193852 -69.283214 612.326016 -0.000000 0.440549 0.214510 -0.445347
5.080000 -1.066949 -25.114367 -0.000000 0.219260 0.447881 -0.194037 -48.116141 605.759259 -0.000000 0.434364 0.206154 -0.445232
5.085000 -7.536309 -30.912320 -0.000000 0.225680 0.456343 -0.195417 -29.140258 597.519360 -0.000000 0.427688 0.198299 -0.445101
5.090000 -14.509021 -37.165793 -0.000000 0.233810 0.464335 -0.194614 -9.851626 588.383149 -0.000000 0.420602 0.190863 -0.445004
5.095000 -21.727960 -43.880815 -0.000000 0.241778 0.471716 -0.195229 6.908367 578.760791 -0.000000 0.413080 0.184029 -0.444890
5.100000 -29.158398 -50.970358 -0.000000 0.250022 0.478614 -0.195340 22.262593 569.048443 -0.000000 0.405154 0.177650 -0.444778
5.105000 -36.742672 -58.233595 -0.000000 0.258695 0.484959 -0.195311 36.728423 559.310286 -0.000000 0.396810 0.171802 -0.444637
5.110000 -44.334809 -65.348533 -0.000000 0.267614 0.490664 -0.195732 50.168467 549.382239 -0.000000 0.388171 0.166594 -0.444522
5.115000 -51.871297 -71.778350 -0.000000 0.276861 0.495689 -0.195813 63.283039 538.853202 -0.000000 0.379081 0.162067 -0.444442
5.120000 -59.206131 -76.940207 -0.000000 0.286314 0.500168 -0.195975 75.952143 527.248510 -0.000000 0.369745 0.158154 -0.444308
5.125000 -66.208899 -80.194706 -0.000000 0.296019 0.503851 -0.196146 88.320806 514.000013 -0.000000 0.360111 0.154894 -0.444183
5.130000 -72.690305 -80.956467 -0.000000 0.306021 0.506939 -0.196391 100.412420 498.541216 -0.000000 0.350234 0.152344 -0.444042
5.135000 -78.229719 -78.951064 -0.000000 0.315792 0.509200 -0.196356 111.091489 480.607236 -0.000000 0.340281 0.150511 -0.443885
5.140000 -82.645956 -73.891666 -0.000000 0.325584 0.510747 -0.196338 120.637950 459.777498 -0.000000 0.330228 0.149499 -0.443749
5.145000 -85.744231 -65.728964 -0.000000 0.335320 0.511634 -0.196278 128.731461 435.866921 -0.000000 0.320126 0.149080 -0.443633
5.150000 -87.428431 -54.535276 -0.000000 0.344865 0.511813 -0.196179 134.909228 408.874210 -0.000000 0.310100 0.149353 -0.443480
5.155000 -87.752332 -40.379973 -0.000000 0.354055 0.511194 -0.195960 138.940063 378.921489 -0.000000 0.300139 0.150412 -0.443326
5.160000 -86.894097 -23.329713 -0.000000 0.362892 0.510023 -0.195613 140.698958 346.344756 -0.000000 0.290333 0.152212 -0.443186
5.165000 -85.186220 -3.418796 -0.000000 0.371338 0.508087 -0.195268 140.312018 311.672207 -0.000000 0.280644 0.154678 -0.443051
5.170000 -83.098867 19.259647 -0.000000 0.379273 0.505175 -0.194911 137.926257 275.695458 -0.000000 0.271082 0.157786 -0.442994
5.175000 -81.231732 44.541564 -0.000000 0.386807 0.501557 -0.194567 133.705078 239.402358 -0.000000 0.261935 0.161675 -0.442890
5.180000 -80.161463 72.417319 -0.000000 0.393861 0.496658 -0.194286 128.179348 203.662604 -0.000000 0.253005 0.166114 -0.442666
5.185000 -80.250291 103.079007 -0.000000 0.400779 0.490273 -0.193670 121.840844 169.273939 -0.000000 0.244434 0.171246 -0.442511
5.190000 -82.212488 136.515320 -0.000000 0.407060 0.484247 -0.193228 114.327955 137.490575 -0.000000 0.236257 0.176995 -0.442217
5.195000 -86.197908 173.166767 -0.000000 0.412905 0.477458 -0.192860 106.255490 108.736047 -0.000000 0.228494 0.183293 -0.442053
5.200000 -92.293850 213.145249 -0.000000 0.418526 0.470095 -0.192442 97.923671 83.524025 -0.000000 0.221108 0.189996 -0.441856
5.205000 -100.222012 256.207657 -0.000000 0.423959 0.462067 -0.192566 89.725052 62.191859 -0.000000 0.213926 0.197157 -0.441064
5.210000 -110.033559 301.370603 -0.000000 0.429155 0.453512 -0.192622 81.941056 45.036219 -0.000000 0.207483 0.204799 -0.440987
5.215000 -120.740815 347.479877 -0.000000 0.434316 0.444161 -0.192612 75.026358 31.762998 -0.000000 0.201542 0.212857 -0.440921
5.220000 -131.545423 392.877404 -0.000000 0.439477 0.434206 -0.192746 69.254202 22.005700 -0.000000 0.196079 0.221265 -0.440928
5.225000 -142.073672 435.624968 -0.000000 0.444476 0.424223 -0.192587 64.809222 15.325932 -0.000000 0.191058 0.230062 -0.441069
5.230000 -151.992746 473.977186 -0.000000 0.448727 0.414041 -0.192840 61.777733 11.162963 -0.000000 0.186566 0.239168 -0.441171
5.235000 -160.433869 506.864294 -0.000000 0.452873 0.403594 -0.193157 60.113340 8.864689 -0.000000 0.182612 0.248302 -0.441372
5.240000 -166.303010 533.971260 -0.000000 0.456531 0.392977 -0.193128 59.668407 7.817084 -0.000000 0.179222 0.258303 -0.441451
5.245000 -170.566028 555.067435 -0.000000 0.459753 0.382141 -0.192811 60.235577 7.686976 -0.000000 0.176465 0.268378 -0.441682
5.250000 -173.448470 570.781979 -0.000000 0.462649 0.371440 -0.192749 61.624181 8.088987 -0.000000 0.174269 0.278775 -0.441842
5.255000 -174.521796 582.328074 -0.000000 0.465215 0.360351 -0.192708 63.647813 8.603573 -0.000000 0.172542 0.289285 -0.441860
5.260000 -174.222261 590.761515 -0.000000 0.467347 0.349195 -0.192529 66.063606 8.924008 -0.000000 0.171547 0.300073 -0.442010
5.265000 -172.769351 597.056344 -0.000000 0.468948 0.338115 -0.192425 68.556389 8.784992 -0.000000 0.171009 0.311013 -0.442079
5.270000 -169.757782 602.075869 -0.000000 0.469972 0.327025 -0.192325 70.766138 7.986629 -0.000000 0.170988 0.322048 -0.442089
5.275000 -164.766196 606.399581 -0.000000 0.470328 0.316016 -0.192189 72.349587 6.471694 -0.000000 0.171644 0.333243 -0.442081
5.280000 -157.851015 610.251035 -0.000000 0.470057 0.305179 -0.191981 73.079491 4.336332 -0.000000 0.172878 0.344448 -0.442063
5.285000 -148.539508 613.806315 -0.000000 0.469159 0.294391 -0.192061 72.919756 1.632020 -0.000000 0.174800 0.355624 -0.442290
5.290000 -136.793704 616.974551 -0.000000 0.467553 0.283674 -0.192050 71.973986 -1.598146 -0.000000 0.177262 0.366751 -0.442096
5.295000 -122.160422 619.646075 -0.000000 0.465047 0.273083 -0.191676 70.383252 -5.443822 -0.000000 0.180332 0.378027 -0.441980
5.300000 -106.553114 621.190829 -0.000000 0.462061 0.262718 -0.191444 68.259558 -9.767402 -0.000000 0.183998 0.388772 -0.441960
5.305000 -89.568676 621.507466 -0.000000 0.458454 0.252613 -0.191277 65.616069 -14.687715 -0.000000 0.188162 0.399359 -0.441893
5.310000 -71.945090 620.375578 -0.000000 0.454112 0.242952 -0.191113 62.407889 -20.155715 -0.000000 0.192870 0.409638 -0.441708
5.315000 -53.656532 617.793171 -0.000000 0.449096 0.233548 -0.191268 58.545509 -26.141766 -0.000000 0.198170 0.419591 -0.441732
5.320000 -35.209791 613.779429 -0.000000 0.443651 0.224477 -0.191027 53.957826 -32.493127 -0.000000 0.204009 0.429389 -0.441558
5.325000 -16.897274 608.456812 -0.000000 0.437731 0.215889 -0.190969 48.587687 -39.030141 -0.000000 0.210619 0.438940 -0.442099
5.330000 -0.842339 601.980330 -0.000000 0.431511 0.207738 -0.191104 42.550820 -45.403476 -0.000000 0.217251 0.447689 -0.441311
5.335000 15.127932 594.561966 -0.000000 0.424530 0.199971 -0.190899 35.736167 -51.568204 -0.000000 0.224620 0.455997 -0.441201
5.340000 30.175450 586.228793 -0.000000 0.417136 0.192824 -0.190760 28.304363 -57.231423 -0.000000 0.232601 0.463846 -0.441660
5.345000 43.052788 576.999755 -0.000000 0.409281 0.186262 -0.190399 20.567574 -62.126312 -0.000000 0.240384 0.470822 -0.441027
5.350000 54.878074 566.660246 -0.000000 0.401062 0.180172 -0.190227 12.646165 -66.104424 -0.000000 0.248816 0.476301 -0.440896
5.355000 67.022800 554.764873 -0.000000 0.392577 0.174712 -0.190175 4.579641 -68.961017 -0.000000 0.257552 0.482695 -0.440744
5.360000 78.463472 541.006898 -0.000000 0.383621 0.169995 -0.189696 -3.340589 -70.448042 -0.000000 0.266686 0.487836 -0.440940
5.365000 89.283436 524.945206 -0.000000 0.374515 0.165970 -0.189752 -10.948705 -70.422627 -0.000000 0.276141 0.492313 -0.440880
5.370000 99.493537 506.160104 -0.000000 0.365112 0.162713 -0.189617 -18.077664 -68.837555 -0.000000 0.285739 0.495955 -0.440880
5.375000 109.123898 484.298009 -0.000000 0.355484 0.159986 -0.189549 -24.604355 -65.711862 -0.000000 0.295428 0.498976 -0.440858
5.380000 118.088887 459.130909 -0.000000 0.345730 0.158051 -0.189513 -30.436519 -61.082670 -0.000000 0.305377 0.501370 -0.441095
5.385000 125.828721 430.704177 -0.000000 0.335848 0.156951 -0.189408 -35.446101 -54.980136 -0.000000 0.315326 0.502970 -0.441072
5.390000 131.708833 399.322830 -0.000000 0.325884 0.156461 -0.189394 -39.523598 -47.383576 -0.000000 0.324964 0.503928 -0.441022
5.395000 135.671796 365.338886 -0.000000 0.315893 0.156843 -0.189043 -42.677115 -38.151617 -0.000000 0.334463 0.504094 -0.441355
5.400000 137.063102 329.507239 -0.000000 0.305991 0.157822 -0.188862 -44.931830 -27.106170 -0.000000 0.343396 0.503336 -0.441537
5.405000 136.359282 292.309248 -0.000000 0.296401 0.159580 -0.188893 -46.534345 -13.786137 -0.000000 0.352434 0.502007 -0.441971
5.410000 133.481232 254.532717 -0.000000 0.286969 0.161960 -0.188903 -47.772577 2.299560 -0.000000 0.361193 0.499959 -0.442483
5.415000 128.578105 216.946878 -0.000000 0.277703 0.164848 -0.188961 -49.044789 21.628590 -0.000000 0.369437 0.496957 -0.442663
5.420000 122.192410 180.128468 -0.000000 0.268633 0.168390 -0.189155 -50.773266 44.640600 -0.000000 0.377385 0.493245 -0.442838
5.425000 114.839327 144.615146 -0.000000 0.259819 0.172580 -0.189265 -53.304000 71.623537 -0.000000 0.385201 0.488686 -0.442950
5.430000 106.857491 111.002874 -0.000000 0.251212 0.177334 -0.189402 -56.947942 102.554210 -0.000000 0.392719 0.483458 -0.443241
5.435000 98.608201 79.809414 -0.000000 0.242922 0.182781 -0.189378 -61.970122 137.039519 -0.000000 0.399798 0.477533 -0.443653
5.440000 90.449977 51.418416 -0.000000 0.234890 0.188661 -0.189399 -68.429755 174.333150 -0.000000 0.406625 0.470773 -0.443670
5.445000 82.526764 26.241713 -0.000000 0.227285 0.195207 -0.189373 -76.273384 213.311503 -0.000000 0.413438 0.463487 -0.443900
5.450000 74.831139 4.681483 -0.000000 0.220020 0.202326 -0.189394 -85.376025 252.617745 -0.000000 0.420068 0.455667 -0.444103
5.455000 67.299728 -12.944921 -0.000000 0.213294 0.209839 -0.189326 -95.471543 290.879806 -0.000000 0.426584 0.447177 -0.444278
5.460000 59.903449 -26.397318 -0.000000 0.207103 0.217738 -0.189279 -106.351615 326.789447 -0.000000 0.432745 0.438218 -0.444392
5.465000 52.672263 -35.663288 -0.000000 0.201474 0.226037 -0.189367 -117.391922 359.389839 -0.000000 0.438823 0.428930 -0.444388
